<svg id="contacts_viber" preserveAspectRatio="xMidYMid slice" viewBox="0 0 72 72" xmlns="http://www.w3.org/2000/svg" xmlns:xlink="http://www.w3.org/1999/xlink"><g fill="none" fill-rule="evenodd"><g transform="translate(8 6)"><g fill="#000" filter="url(https://www.monobank.ua/contacts#ugid703)"><circle cx="28" cy="28" id="ugid702" r="28"></circle></g><g fill="#8F5DB7"><circle cx="28" cy="28" id="ugid702" r="28"></circle></g></g><g fill="#FFF"><path d="M45.775 39.367c-.732-.589-1.514-1.118-2.284-1.658-1.535-1.078-2.94-1.162-4.085.573-.644.974-1.544 1.017-2.486.59-2.596-1.178-4.601-2.992-5.775-5.63-.52-1.168-.513-2.215.702-3.04.644-.437 1.292-.954 1.24-1.908-.067-1.244-3.088-5.402-4.281-5.84-.494-.182-.985-.17-1.488-.002-2.797.94-3.955 3.241-2.846 5.965 3.31 8.127 9.136 13.784 17.155 17.237.457.197.965.275 1.222.346 1.826.018 3.964-1.74 4.582-3.486.595-1.68-.662-2.346-1.656-3.147zm-8.991-16.08c5.862.9 8.566 3.688 9.312 9.593.07.545-.134 1.366.644 1.381.814.016.618-.793.625-1.339.068-5.56-4.78-10.716-10.412-10.906-.425.061-1.304-.293-1.359.66-.036.641.704.536 1.19.61z"></path><path d="M37.93 24.905c-.564-.068-1.308-.333-1.44.45-.137.82.692.737 1.225.856 3.621.81 4.882 2.127 5.478 5.719.087.524-.086 1.339.804 1.203.66-.1.421-.799.476-1.207.03-3.448-2.925-6.586-6.543-7.02z"></path><path d="M38.263 27.725c-.377.01-.746.05-.884.452-.208.601.229.745.674.816 1.485.239 2.267 1.114 2.415 2.596.04.402.295.727.684.682.538-.065.587-.544.57-.998.027-1.665-1.854-3.588-3.46-3.548z"></path></g></g></svg>